Simulation
nRows=19
nColumns=15
endheader
time  TH_x TH_y TH_z SC_y  SC_z  SC_x  AC_y  AC_z  AC_x  GH_y  GH_z  GH_yy  EL_x  PS_y
1.4  0.000000  0.000000  0.000000  -41.657726071770846  9.326651835721298  -1.416712627498039  66.32623162115624  36.49598513469953  9.77249110105761  -28.33713565411807  63.37663710748347  29.572113443570554  6.513606474423495  120.000000
1.428  0.000000  0.000000  0.000000  -41.846410551301595  9.49430156476908  -1.0918780042493255  66.51379214776229  36.472610831485774  9.979396063102346  -28.40863311065223  63.66252872750183  29.617695265331456  6.475461965200274  120.000000
1.456  0.000000  0.000000  0.000000  -41.993376769486744  9.626400407985626  -0.8031005280489141  66.677389733555  36.42510107568328  10.130652637923589  -28.466396805585802  63.869145291089765  29.652767896166882  6.463304659261698  120.000000
1.4839999999999998  0.000000  0.000000  0.000000  -42.10052773986155  9.722955060628777  -0.5571329266653423  66.8128982549099  36.35994503344649  10.227963842607508  -28.505663276414733  64.00223842746314  29.68285376549739  6.469522531013682  120.000000
1.5119999999999998  0.000000  0.000000  0.000000  -42.17141637032405  9.788109281365346  -0.3589826124834711  66.91785536808715  36.284119109486326  10.278752433948206  -28.5249797446033  64.06749670381143  29.71083187589304  6.486823774830449  120.000000
1.5399999999999998  0.000000  0.000000  0.000000  -42.210834098077164  9.831810853518439  -0.2122048500238659  66.99061396791657  36.204752360191605  10.29812463587541  -28.527570572226182  64.06933650830369  29.736400774360288  6.5085037621532065  120.000000
1.5679999999999998  0.000000  0.000000  0.000000  -42.222498523912215  9.861708180426591  -0.11724531701037945  67.0310470397958  36.12742154021115  10.298124570374961  -28.517607318731272  64.01377712899614  29.756581947699658  6.529403377554165  120.000000
1.5959999999999999  0.000000  0.000000  0.000000  -42.207206868224176  9.874070074401375  -0.07038144450313084  67.04171566643784  36.0545454914815  10.275562196499989  -28.49488747901196  63.911769208411734  29.766746896004733  6.546688614640265  120.000000
1.6239999999999999  0.000000  0.000000  0.000000  -42.164649463125826  9.860220370939214  -0.06627337382604581  67.02597107517433  35.98679154989247  10.220555596821136  -28.45693210504534  63.774912663616824  29.762192530887095  6.558974664302428  120.000000
1.652  0.000000  0.000000  0.000000  -42.09588060499982  9.815817310686981  -0.10035418930286276  66.98600495749366  35.92467999815411  10.128497289327703  -28.402520916359528  63.61051338115253  29.73952405384548  6.5654610088570795  120.000000
1.6799999999999997  0.000000  0.000000  0.000000  -42.00377847798104  9.740735424267262  -0.16869971656710295  66.92308025808448  35.86898708065006  9.9998211456409  -28.33077677947025  63.4213396309298  29.697476395087207  6.566176338426817  120.000000
1.7079999999999997  0.000000  0.000000  0.000000  -41.89227679824548  9.637029786697358  -0.2676857776520312  66.83790731502606  35.82077536356452  9.837698986897554  -28.24037581063736  63.206540753361104  29.636791059345235  6.5622866612963335  120.000000
1.7359999999999998  0.000000  0.000000  0.000000  -41.76545710974856  9.507921693963784  -0.3941237275925353  66.73124741541554  35.781157034265696  9.646713249669277  -28.12991847883921  62.96246930151687  29.559405314424932  6.555850695713434  120.000000
1.7639999999999998  0.000000  0.000000  0.000000  -41.62667091725393  9.356840388622874  -0.5456234580336425  66.60464052520918  35.750924457349804  9.431740513413954  -27.998468218411045  62.68389939477468  29.467449287239305  6.5494709631427455  120.000000
1.7919999999999998  0.000000  0.000000  0.000000  -41.4778319373821  9.187193514757901  -0.7210660480531313  66.46101788784296  35.730041998437265  9.197428661999817  -27.84639083626086  62.364953844056956  29.362345466800466  6.5456923106824565  120.000000
1.8199999999999998  0.000000  0.000000  0.000000  -41.319094304219355  9.002322584814085  -0.9209650996692637  66.30470877907689  35.717159736570416  8.948178323491378  -27.67580801264708  61.99982102523562  29.244381785831116  6.546475769523247  120.000000
1.8479999999999999  0.000000  0.000000  0.000000  -41.14896745775661  8.8054668186034  -1.1474422554036996  66.14089459224066  35.709771467888025  8.688137546111411  -27.49037246130638  61.58297176841976  29.113034176073768  6.553225787666935  120.000000
1.876  0.000000  0.000000  0.000000  -40.96485120787449  8.59993645701027  -1.4037630805619914  65.97462385188012  35.70463657008002  8.421560891326642  -27.294287343899725  61.10924830679359  28.967952854156113  6.567105865866697  120.000000
1.904  0.000000  0.000000  0.000000  -40.76382822396791  8.389172787445988  -1.6935952713887537  65.80967856379422  35.698381020943955  8.152877573394559  -27.091221938889056  60.57362462133142  28.810282183253168  6.589302712849947  120.000000
